<svg xmlns="http://www.w3.org/2000/svg" fill="none" viewBox="0 0 512 512" id="Avax--Streamline-Cryptocurrency" height="512" width="512">
  <desc>
    Avax Streamline Icon: https://streamlinehq.com
  </desc>
  <path fill="#e84142" d="M256 512c141.3856 0 256 -114.6144 256 -256 0 -141.38496 -114.6144 -256 -256 -256C114.61504 0 0 114.61504 0 256c0 141.3856 114.61504 256 256 256Z" stroke-width="16"></path>
  <path fill="#ffffff" fill-rule="evenodd" d="M184.288 364H135.84048c-10.176 0 -15.2 0 -18.272 -1.968 -1.61856 -1.056 -2.96592 -2.4784 -3.93312 -4.152 -0.96736 -1.672 -1.52736 -3.5504 -1.63488 -5.48 -0.192 -3.616 2.32 -8.048 7.36 -16.88L238.912 124.43232c5.088 -8.96 7.68 -13.44 10.912 -15.104 1.7312 -0.87952 3.6432 -1.33808 5.584 -1.33808 1.9408 0 3.8544 0.45856 5.584 1.33808 3.248 1.664 5.824 6.144 10.912 15.104L296.48 167.408l0.128 0.224c5.488 9.6 8.272 14.496 9.488 19.616 1.36 5.6048 1.36 11.4528 0 17.056 -1.216 5.168 -3.984 10.08 -9.552 19.84l-62.816 111.2 -0.16 0.272c-5.536 9.696 -8.32 14.608 -12.224 18.32 -4.2016 4.024 -9.3024 6.9856 -14.88 8.64 -5.104 1.424 -10.784 1.424 -22.176 1.424Zm122.288 0h69.376c10.24 0 15.392 0 18.464 -2.016 1.632 -1.0624 2.9872 -2.496 3.9552 -4.184 0.968 -1.6896 1.52 -3.584 1.6128 -5.528 0.176 -3.504 -2.272 -7.744 -7.088 -16.08l-0.512 -0.864 -34.752 -59.552 -0.4 -0.672c-4.88 -8.272 -7.36 -12.448 -10.512 -14.064 -1.7168 -0.8768 -3.616 -1.3328 -5.544 -1.3328 -1.9264 0 -3.8272 0.456 -5.544 1.3328 -3.2 1.664 -5.76 6.032 -10.848 14.8l-34.64 59.552 -0.112 0.208c-5.072 8.768 -7.616 13.136 -7.424 16.736 0.1072 1.9392 0.6656 3.8256 1.6336 5.5104 0.9664 1.6832 2.3136 3.1168 3.9344 4.1856 3.008 1.968 8.16 1.968 18.4 1.968Z" clip-rule="evenodd" stroke-width="16"></path>
</svg>