<svg xmlns="http://www.w3.org/2000/svg" fill="none" viewBox="0 0 512 512" id="Usdc--Streamline-Cryptocurrency" height="512" width="512">
  <desc>
    Usdc Streamline Icon: https://streamlinehq.com
  </desc>
  <path fill="#3e73c4" d="M256 512c141.3856 0 256 -114.6144 256 -256 0 -141.38496 -114.6144 -256 -256 -256C114.61504 0 0 114.61504 0 256c0 141.3856 114.61504 256 256 256Z" stroke-width="16"></path>
  <path fill="#ffffff" d="M320.3536 289.984c0 -33.984 -20.48 -45.632 -61.44 -50.496 -29.248 -3.888 -35.088 -11.648 -35.088 -25.248 0 -13.6 9.76 -22.336 29.248 -22.336 17.552 0 27.312 5.824 32.176 20.4 0.5056 1.4096 1.432 2.6304 2.6544 3.496 1.2208 0.8672 2.6784 1.3392 4.1776 1.352h15.6c0.9008 0.024 1.7968 -0.1344 2.6352 -0.4672 0.8368 -0.3328 1.5984 -0.8336 2.2368 -1.4688 0.6384 -0.6352 1.1424 -1.3952 1.4784 -2.2304 0.3376 -0.8368 0.5008 -1.7328 0.4816 -2.6336v-0.96c-1.9072 -10.5456 -7.2432 -20.1664 -15.1792 -27.368 -7.936 -7.2016 -18.0288 -11.5792 -28.7088 -12.456V146.27216c0 -3.888 -2.928 -6.8 -7.792 -7.776h-14.64c-3.888 0 -6.816 2.912 -7.792 7.776V168.608c-29.264 3.872 -47.776 23.296 -47.776 47.584 0 32.032 19.488 44.656 60.448 49.52 27.312 4.848 36.08 10.688 36.08 26.224 0 15.52 -13.648 26.208 -32.176 26.208 -25.36 0 -34.128 -10.672 -37.056 -25.248 -0.96 -3.872 -3.904 -5.824 -6.832 -5.824h-16.576c-0.9008 -0.0224 -1.7952 0.1392 -2.6304 0.4736 -0.8368 0.3328 -1.5952 0.8336 -2.2336 1.4688 -0.6368 0.6352 -1.1376 1.3936 -1.4736 2.2288 -0.336 0.8352 -0.4992 1.7296 -0.4784 2.6288v0.96c3.888 24.288 19.504 41.76 51.68 46.624v23.312c0 3.872 2.928 6.8 7.792 7.76h14.64c3.888 0 6.816 -2.912 7.792 -7.76V341.44c29.264 -4.848 48.752 -25.248 48.752 -51.472v0.016Z" stroke-width="16"></path>
  <path fill="#ffffff" d="M206.272 391.952c-76.06336 -27.2 -115.07136 -111.68 -86.78336 -186.448 14.624 -40.8 46.79936 -71.856 86.78336 -86.432 3.904 -1.936 5.84 -4.848 5.84 -9.712v-13.6c0 -3.872 -1.936 -6.784 -5.84 -7.76 -0.976 0 -2.928 0 -3.904 0.96 -21.944 6.85312 -42.3168 17.97968 -59.94464 32.73872 -17.62736 14.7592 -32.16096 32.85936 -42.76432 53.25808 -10.60336 20.4 -17.06688 42.6944 -19.01824 65.6016 -1.95136 22.9072 0.64784 45.9744 7.64784 67.8736 17.536 54.4 59.472 96.16 114.07936 113.632 3.904 1.936 7.808 0 8.768 -3.888 0.976 -0.96 0.976 -1.952 0.976 -3.888v-13.6c0 -2.912 -2.912 -6.784 -5.84 -8.736Zm103.36 -302.976c-3.904 -1.952 -7.808 0 -8.768 3.872 -0.976 0.976 -0.976 1.952 -0.976 3.888v13.6c0 3.888 2.912 7.76 5.84 9.712 76.064 27.2 115.072 111.68 86.784 186.448 -14.624 40.8 -46.8 71.856 -86.784 86.432 -3.904 1.936 -5.84 4.848 -5.84 9.712v13.6c0 3.872 1.936 6.784 5.84 7.76 0.976 0 2.928 0 3.904 -0.96 21.9456 -6.8528 42.3184 -17.9792 59.9456 -32.7392 17.6272 -14.7584 32.1616 -32.8592 42.7648 -53.2576 10.6032 -20.4 17.0672 -42.6944 19.0176 -65.6016 1.952 -22.9072 -0.648 -45.9744 -7.648 -67.8736 -17.536 -55.36 -60.448 -97.12 -114.08 -114.592Z" stroke-width="16"></path>
</svg>